<svg xmlns="http://www.w3.org/2000/svg" width="1500" height="1000" fillRule="evenodd" clipRule="evenodd"
  imageRendering="optimizeQuality" shapeRendering="geometricPrecision" textRendering="geometricPrecision"
  fill="#e8931e">
  <g>
    <g>
      <path d="M0 764L212 867 12 1000 7 1000 207 868 207 868 0 767z"></path>
      <path d="M7 1000L210 865 333 1000 328 1000 209 869 12 1000z"></path>
      <path d="M328 1000L207 867 413 763 346 1000 342 1000 407 769 407 769 212 868 333 1000z"></path>
      <path d="M211 870L0 767 0 764 208 865 208 865 251 691 0 761 0 758 256 687z"></path>
      <path d="M207 870l43-184 161 79 2 1-206 104zm203-104l-1-1 1 1zm-3 0l-154-75-41 174 195-99z">
      </path>
      <path d="M342 1000L409 763 622 1000 618 1000 411 770 346 1000z"></path>
      <path d="M411 768l-160-78-3-2 384-102-221 182zm-1-3l210-173-364 97 154 76z"></path>
      <path d="M0 612L257 689 0 761 0 758 247 689 247 689 0 615z"></path>
      <path d="M618 1000L409 767 406 764 712 844 637 1000 633 1000 708 846 415 769 622 1000z"></path>
      <path d="M405 769l220-181 1 1-1-1 1-1 188 88-409 94zm401-95l-179-83-211 173 390-90z"></path>
      <path d="M712 846l-1 1-306-81 408-93-101 173zm95-169l-391 89 293 78 98-167z"></path>
      <path d="M633 1000L709 843 938 1000 933 1000 711 848 637 1000z"></path>
      <path d="M933 1000L709 846 705 844 980 848 955 1000 952 1000 976 851 715 847 938 1000z"></path>
      <path d="M706 849l102-175 2 1-2-1 1-1 168 42-271 134zm263-133l-158-40-97 166 255-126z"></path>
      <path d="M704 846l270-133 6 137v1l-276-5zm274 2v2-2zm-2 0l-5-130-255 126 260 4z"></path>
      <path d="M952 1000L977 845 1078 1000 1074 1000 979 855 955 1000z"></path>
      <path
        d="M977 851l-6-136v-2l298 103-292 35zm3-3l277-33-282-97 5 130zM811 677l-186-87-2-1 298-171-110 259zm-2-4l105-248-285 164 180 84z">
      </path>
      <path d="M808 676l108-255h3l56 294v2l-167-41zm165 38v1-1zm-3 0l-53-286-105 246 158 40z"></path>
      <path d="M970 716l113-128 182 227h-2 2l2 3-297-102zm288 96l-175-219-108 122 283 97z"></path>
      <path
        d="M971 719l-55-297 3-1 166 169-114 129zm3-7l107-122-161-163 54 285zM978 851l-6-2 292-35 75 147-361-110zm355 105l-71-139-277 33 348 106z">
      </path>
      <path d="M1263 819l-182-228-1-2 270 15-87 215zm-1-7l83-205-259-15 176 220z"></path>
      <path d="M1260 817L1347 602 1500 798 1500 803 1348 609 1265 814 1500 818 1500 821z"></path>
      <path d="M1074 1000l-99-153 362 110 5 2-199 41h-13l201-42-349-106 96 148h-4zm262-42v-1 1z">
      </path>
      <path d="M1335 961L1260 814 1500 818 1500 821 1266 817 1337 956 1337 956 1500 829 1500 833z">
      </path>
      <path d="M1130 1000L1337 957 1362 1000 1358 1000 1335 960 1143 1000z"></path>
      <path d="M1358 1000L1333 956 1482 1000 1473 1000 1340 961 1362 1000z"></path>
      <path d="M1473 1000L1333 959 1500 829 1500 833 1339 958 1482 1000z"></path>
      <path d="M1500 803L1344 604 1500 628 1500 631 1351 607 1500 798z"></path>
      <path d="M1500 631L1345 606 1500 447 1500 451 1351 605 1500 628z"></path>
      <path d="M1083 592L916 422l-3-3 283 73-113 100zm0-4l107-95-268-69 161 164z"></path>
      <path d="M1079 591l114-101 156 115h-1 1l3 2-273-16zm264 13l-149-110-107 95 256 15z"></path>
      <path d="M1194 494l-277-71v-3l412-28-135 102zm-1-3l127-96-394 27 267 69z"></path>
      <path d="M1191 492l135-101 23 214h-1 1l1 4-159-117zm154 110l-22-205-127 95 149 110z"></path>
      <path d="M1346 609L1323 392 1500 429 1500 432 1327 395 1349 602 1349 602 1500 447 1500 451z">
      </path>
      <path d="M918 423l-1-1 1 1h-4l177-187 238 159-411 28zm403-30l-229-153-171 180 400-27z"></path>
      <path d="M628 590l-2-1 2 1-4 2 44-184 254 13-294 169zm285-167l-242-12-42 175 284-163z"></path>
      <path d="M0 464L282 405 0 608 0 604 270 411 270 411 0 466z"></path>
      <path d="M271 409l205-119 195 119-2 1 2-1 3 2-403-2zm393-1L476 294 281 406l383 2z"></path>
      <path d="M0 455L110 322 280 408 0 466 0 463 272 407 272 407 111 326 0 460z"></path>
      <path d="M273 411l59-226 145 106 2 1-206 119zm203-119l-1-1 1 1zm-3 0L334 191l-55 213 194-112z">
      </path>
      <path d="M277 410l-168-85-1-1 228-139-59 225zm-2-5l55-213-216 132 161 81z"></path>
      <path d="M0 323L114 322 0 460 0 455 107 325 107 325 0 326z"></path>
      <path d="M0 181L114 325 0 326 0 323 107 322 107 322 0 186z"></path>
      <path d="M108 327l34-134 191-6v1l-1-1 1 1v-1h5L108 327zm220-137l-183 5-32 125 215-130z"></path>
      <path d="M111 328L0 186 0 181 110 320 110 320 142 195 0 177 0 174 146 193z"></path>
      <path d="M670 412L475 293l-5-3 247 20-47 102zm-2-5l44-95-230-18 186 113z"></path>
      <path d="M667 411l47-102 205 112-2 1 2-1 4 2-256-12zm245 9L716 313l-44 95 240 12z"></path>
      <path d="M916 426l-1-147 176-42 1 1-2-1 2 1-1-1 5-2-180 191zm3-9l168-177-169 41 1 136z"></path>
      <path
        d="M714 312l-3-2 207-32 1 146-205-112zm202 107l-1-138-196 31 197 107zM1326 396l-236-157 2-2 273 57-39 102zm-2-5l37-96-263-54 226 150z">
      </path>
      <path d="M1322 394L1362 292 1500 418 1500 422 1364 297 1327 393 1500 429 1500 432z"></path>
      <path d="M1500 422L1359 293 1500 282 1500 284 1366 295 1500 418z"></path>
      <path d="M1365 296l-274-57-6-1 286-51-6 109zm-4-3l6-102-269 47 263 55z"></path>
      <path d="M1361 296L1368 186 1500 270 1500 274 1371 192 1365 293 1500 282 1500 284z"></path>
      <path d="M1500 274L1366 188 1500 170 1500 172 1373 190 1500 270z"></path>
      <path d="M1500 172L1366 191 1500 11 1500 17 1373 187 1500 170z"></path>
      <path d="M1368 194L1346 0 1350 0 1371 184 1371 184 1500 11 1500 17z"></path>
      <path d="M1092 239v-1 1l-4 1 75-109 212 58-283 50zm271-50l-198-54-70 101 268-47z"></path>
      <path d="M1161 133L1337 0 1342 0 1167 132 1367 187 1367 187 1346 0 1350 0 1372 191z"></path>
      <path d="M917 281v-1l1-1-1 1v1h-1l-97-81 280 37-182 44zm168-43l-257-34 89 74 168-40z"></path>
      <path d="M1165 134L1164 133 1165 134 1162 136 1164 0 1168 0 1166 129 1337 0 1342 0z"></path>
      <path d="M715 312v-1 1l-4 1 112-113 97 81-205 31zm198-33l-90-75-104 105 194-30z"></path>
      <path d="M476 293l-1-2 177-46 67 68-243-20zm235 16l-61-61-166 43 227 18z"></path>
      <path d="M715 313l-67-68 175-44v1h-1 1v-1l5-1-113 113zm0-4l103-104-164 42 61 62z"></path>
      <path d="M475 293L332 189l-5-3 330 60-182 47zm1-3l169-44-306-55 137 99z"></path>
      <path d="M0 85L145 193 144 194 145 193 149 196 0 177 0 174 139 192 139 192 0 89z"></path>
      <path d="M15 0L170 53 0 81 0 79 159 52 159 52 7 0z"></path>
      <path d="M144 195v-1 1h-5l138-97 59 91-192 6zm186-8l-54-84-128 90 182-6z"></path>
      <path d="M167 53L166 55 7 0 15 0 163 51 180 0 184 0z"></path>
      <path d="M75 143L74 145 0 89 0 85 73 140 160 55 160 55 0 81 0 79 169 51z"></path>
      <path d="M141 198l22-147 114 48 2 1-138 98zm135-98h-1 1zm-3 1L166 55l-20 135 127-89z"></path>
      <path d="M162 55L180 0 184 0 168 50 304 0 312 0z"></path>
      <path d="M145 197l-73-54h-1l92-91 4 1-22 144zm-3-6l20-133-86 84 66 49z"></path>
      <path d="M278 101L277 102 161 53 304 0 312 0 168 53 275 98 321 0 325 0z"></path>
      <path d="M334 189l-2 1-59-90 288-44 2 2-229 131zM555 60l-276 41 55 85L555 60z"></path>
      <path d="M329 189L559 56l94 190h-2 2l1 2-325-59zm319 55L557 60 337 188l311 56z"></path>
      <path d="M273 102L321 0 325 0 279 99 552 58 552 58 344 0 354 0 564 58z"></path>
      <path d="M650 248L554 54l270 147 3 2-177 45zm173-46v-1 1zm-171 42l168-42L562 62l90 182z"></path>
      <path d="M1166 133L1164 133 1166 132 1164 133 1166 133 1166 137 1043 0 1047 0 1162 128 1164 0 1168 0z"></path>
      <path d="M1093 238h-1l1-1-1 1h1l-1 3-103-117 178 8-74 106zm68-104l-165-7 95 108 70-101z"></path>
      <path d="M823 203h-5l175-79 102 116-272-37zm265 33l-96-108-164 74 260 34z"></path>
      <path d="M990 127L1035 0 1039 0 995 125 1163 134 1163 134 1043 0 1047 0 1170 137z"></path>
      <path d="M557 59l-5-3 234 5 40 144L557 59zm263 140L783 64l-220-5 257 140z"></path>
      <path d="M560 0L562 58 560 58 562 58 562 60 344 0 354 0 558 57 558 57 556 0z"></path>
      <path d="M784 62L785 61 784 64 558 60 556 0 560 0 562 57 562 57 775 61 574 0 583 0 785 61z">
      </path>
      <path d="M782 64L806 0 810 0 787 60 1011 0 1021 0z"></path>
      <path d="M822 204L782 60l211 65 4 1-175 78zm171-78l-1-1 1 1zm-168 74l164-74-202-62 38 136z">
      </path>
      <path d="M994 128L779 62 1011 0 1021 0 789 62 991 124 991 124 1035 0 1039 0z"></path>
      <path d="M786 64L574 0 583 0 783 61 783 61 806 0 810 0z"></path>
      <path d="M628 589h-2l1-1-1 1h2v1l-278-50 322-133-44 182zm39-177L360 539l265 48 42-175z"></path>
      <path d="M0 609L224 584 254 691 0 615 0 612 249 687 249 687 221 587 0 612z"></path>
      <path
        d="M356 541l-1-1 2-1-2 1 1 1-2 1-81-136 403 2-320 133zm307-130l-384-2 77 129 307-127zM0 604l167-121 58 102v2L0 612v-3l220-24-54-97L0 608v-4zm223-18v-2 2z">
      </path>
      <path
        d="M248 691l106-153 273 50 5 1-384 102zm378-102v-1 1zm-6 0l-264-48-100 145 364-97zM225 586l-2 4-59-104 115-83-54 183zm48-174l-104 74 53 95 51-169z">
      </path>
      <path d="M220 588l55-185 82 136v2l-137 47zm135-48l-1-1 1 1zm-2-1l-76-127-52 171 128-44z"></path>
      <path d="M254 689h-2l2-1-2 1h2l-3 4-30-108 138-48-105 152zm97-146l-126 43 28 99 98-142z"></path>
    </g>
  </g>
</svg>