<svg xmlns="http://www.w3.org/2000/svg" width="1500" height="1000" fillRule="evenodd" clipRule="evenodd"
  imageRendering="optimizeQuality" shapeRendering="geometricPrecision" textRendering="geometricPrecision"
  fill="#e8931e">
  <g>
    <g>
      <path d="M1154 1000L1303 864 1500 997 1500 1000 1500 1000 1303 868 1303 868 1159 1000z"></path>
      <path d="M1500 1000L1300 865 1500 784 1500 787 1306 866 1500 997 1500 1000z"></path>
      <path d="M1500 787L1303 867 1147 730 1500 774 1500 777 1156 733 1156 733 1303 864 1500 784z">
      </path>
      <path d="M1306 865L1159 1000 1154 1000 1300 867 1300 867 1039 838 1140 1000 1136 1000 1033 835z">
      </path>
      <path d="M1307 867l-275-29 118-107 2-2 155 138zm-155-135h-2 2zm0 2l-113 102 260 28-147-130z">
      </path>
      <path d="M1500 777L1146 732 1500 590 1500 593 1157 731 1500 774z"></path>
      <path d="M1154 731l-117 107-2 2-153-257 272 148zm-5 1L891 591l145 244 113-103z"></path>
      <path d="M925 1000L1036 834 1140 1000 1136 1000 1036 841 1036 841 929 1000z"></path>
      <path d="M1500 593L1153 733 1148 735 1269 530 1500 579 1500 582 1271 533 1156 728 1500 590z">
      </path>
      <path d="M1156 735L885 588l1-1-1 1-1-1 131-125 141 273zm-142-268L889 587l259 141-134-261z">
      </path>
      <path d="M1270 530h2l-120 205-140-273 258 68zm-252-63l134 261 115-196-249-65z"></path>
      <path d="M1500 582L1266 532 1500 380 1500 383 1273 531 1500 579z"></path>
      <path d="M1500 383L1271 532 1268 534 1275 350 1500 367 1500 370 1278 353 1272 528 1500 380z">
      </path>
      <path d="M1275 534l-261-68 1-2-1 2-2-1 63-112 200 181zm-199-176l-59 106 247 64-188-170z"></path>
      <path d="M1271 535l-199-181 204-3h2l-7 184zm3-183h2-2zm0 1l-195 4 189 170 6-174z"></path>
      <path d="M1500 370L1269 353 1500 286 1500 288 1284 351 1500 367z"></path>
      <path
        d="M1279 353l-203 4h-4l154-199 53 195zm-5-2l-50-185-145 188 195-3zM1018 464L888 588l-2 1-256-199 388 74zm-6 1l-370-70 244 190 126-120z">
      </path>
      <path d="M1016 466l-381-72 1-3 439-37h3l-62 112zm58-111l2 1-2-1zm-1 2l-428 36 369 70 59-106z">
      </path>
      <path d="M1076 357l-192-75 340-121 1 1-1-1 5-2-153 198zm144-192L892 282l183 72 145-189z"></path>
      <path
        d="M1081 356l-445 38-1-3 253-111 193 76zm-11-1l-182-72-244 108 426-36zM1278 352l-2 4-53-195 220-50-165 241zm158-237l-209 48 50 185 159-233z">
      </path>
      <path d="M1230 161L889 283l-3 1 23-181 321 58zm-10 1l-307-55-23 173 330-118z"></path>
      <path d="M1227 163L906 105 1208 0 1216 0 916 105 1223 160 1229 0 1233 0z"></path>
      <path d="M1500 288l-227 66 164-242 2-3 61 130v8l-61-131-159 233 220-63v2zm-61-175h-2 2z"></path>
      <path d="M1443 113L1223 163 1229 0 1233 0 1227 160 1435 112 1435 112 1241 0 1246 0z"></path>
      <path d="M1500 247L1437 112 1500 96 1500 98 1441 113 1500 239z"></path>
      <path d="M1500 98L1435 115 1500 17 1500 24 1443 110 1500 96z"></path>
      <path d="M1500 24L1440 115 1241 0 1246 0 1438 111 1500 17z"></path>
      <path d="M1216 0L908 108 947 0 950 0 914 103 1208 0z"></path>
      <path d="M950 0L912 107 666 0 673 0 910 103 947 0z"></path>
      <path d="M891 282L637 394l-5 2 109-190 150 76zm-6 0l-143-72-102 179 245-107z"></path>
      <path d="M890 284l-151-76 171-104 1 1-1-1 3-2-23 182zm19-176L745 208l142 71 22-171z"></path>
      <path d="M744 208L638 393h-4l-42-276 152 91zm-5 0l-143-85 41 264 102-179z"></path>
      <path d="M742 210l-153-91 322-15v1-1h5L742 210zm164-103l-307 14 143 85 164-99z"></path>
      <path d="M917 106L591 122 649 0 653 0 597 119 905 104 905 104 666 0 673 0z"></path>
      <path d="M638 392l-2 1 2-1v3L358 276l238-158 42 274zm-45-269L364 276l270 114-41-267z"></path>
      <path d="M888 586l-2 1 2-1 3 3-275-30 18-170 254 197zM638 396l-18 161 261 28-243-189z"></path>
      <path d="M696 1000L612 817 906 1000 900 1000 619 825 619 825 700 1000z"></path>
      <path d="M617 825L439 688l177-131 2 1-2-1 4-2-3 270zm-1-263L444 688l169 130 3-256z"></path>
      <path d="M670 1000L487 932 616 818 700 1000 696 1000 614 824 614 824 492 931 678 1000z"></path>
      <path d="M620 823l-337-39 158-97 1-1 178 137zM442 688h-2 2zm0 1l-151 93 319 37-168-130z"></path>
      <path d="M618 820L491 933l-1 1-208-153 336 39zm-6 2l-320-37 197 145 123-108z"></path>
      <path d="M488 1000L487 930 678 1000 670 1000 491 934 491 934 492 1000z"></path>
      <path d="M292 1000L491 930 492 1000 488 1000 488 934 488 934 300 1000z"></path>
      <path d="M495 934l-202-23-8-128h2l-2 1 2-1h-2v-3l210 154zM289 786l8 122 187 22-195-144z"></path>
      <path d="M495 931L300 1000 292 1000 484 932 484 932 297 911 271 1000 267 1000 294 908z"></path>
      <path d="M621 558L443 688l-4 3 30-165 152 32zm-7 1l-142-29-28 154 170-125z"></path>
      <path d="M620 560l-153-31 167-137 2 1-2-1 4-3-18 171zm14-164L474 527l142 30 18-161z"></path>
      <path d="M642 394H422l-63-117 2-1-1 1 1-1-2 1-2-4 285 121zm-13-3L365 279l60 113 204-1z"></path>
      <path
        d="M472 529l-3 2-48-139 219-1-168 138zm160-135H426l45 131 161-131zM598 120L362 277l-3-1 85-183 154 27zm-8 1L447 96l-82 176 225-151z">
      </path>
      <path d="M595 122L441 95 637 0 643 0 450 94 593 119 649 0 653 0z"></path>
      <path d="M643 0L444 97 426 0 430 0 447 93 637 0z"></path>
      <path d="M448 94l-85 183-2 4-76-192 163 5zm-5 2l-153-4 71 180 82-176z"></path>
      <path d="M448 96L283 92 414 0 419 0 292 89 443 94 426 0 430 0z"></path>
      <path d="M419 0L287 93 258 0 262 0 289 88 414 0z"></path>
      <path d="M262 0L290 93 12 0 20 0 285 88 258 0z"></path>
      <path d="M295 91L0 106 0 104 281 90 281 90 12 0 20 0z"></path>
      <path d="M363 276h-2 2l1 2-163-50 87-142 75 190zM287 94l-81 133 152 47-71-180z"></path>
      <path
        d="M205 230L0 109v-5l291-15-86 141zm80-138L0 106l203 120 82-134zM426 393h-2l-1-1 1 1h2v1l-121 65 55-188 66 122zm-65-112l-50 171 110-59-60-112z">
      </path>
      <path d="M205 227L204 228 205 227 209 229 0 228 0 225 199 227 0 109 0 106z"></path>
      <path d="M472 528h-2 2l1 3-169-75 121-65 47 137zm-49-133l-112 60 156 70-44-130z"></path>
      <path d="M444 688h-4l-69-118 102-45-29 163zm24-157l-92 40 65 111 27-151z"></path>
      <path d="M474 528l-102 45-66-117h2l-1 1 1-1h-2l-2-4 170 76zm-7 0l-155-69 62 110 93-41z"></path>
      <path d="M444 688l-156 96-5 3 90-220 71 121zm-4-1l-66-112-84 204 150-92z"></path>
      <path d="M142 1000L294 909 295 910 294 909 298 906 271 1000 267 1000 292 913 292 913 147 1000z">
      </path>
      <path d="M2 1000L85 892 125 1000 121 1000 83 899 83 899 6 1000z"></path>
      <path d="M297 910h-2 2v3l-145-92 136-40 9 129zm-12-125l-126 37 134 84-8-121z"></path>
      <path d="M84 894L87 895 6 1000 2 1000 81 896 0 885 0 882z"></path>
      <path d="M219 956L221 957 148 1000 142 1000 215 957 87 899 87 899 125 1000 121 1000 81 893z">
      </path>
      <path d="M301 911L81 897l73-77 1-1 146 92zm-146-90l-1 1 1-1zm1 2l-69 72 203 13-134-85z"></path>
      <path d="M88 897L0 885 0 882 80 894 0 796 0 791z"></path>
      <path d="M300 909l-81 49h-1L83 897l1-3 216 15zm-9 2L91 897l127 58 73-44z"></path>
      <path d="M156 820L158 820 84 898 0 796 0 791 84 893 152 822 0 790 0 788z"></path>
      <path d="M288 782l2 2-136 39-65-192 3-1 196 152zM94 635l63 184 127-36L94 635z"></path>
      <path d="M288 786L88 632l285-63v2-2h3l-88 217zm83-213L95 634l191 146 85-207z"></path>
      <path d="M158 823L0 790 0 788 153 819 91 637 91 637 0 784 0 778 92 629z"></path>
      <path d="M376 571L86 636l220-181 2-2 68 118zm-68-115h-2 2zm63 114l-64-112L97 630l274-60z"></path>
      <path d="M204 227L204 228 203 227 204 228 204 227 211 227 0 311 0 308 197 229 0 228 0 225z">
      </path>
      <path d="M362 275l-1 1-1-1 1 1 1-1 3 1-174 69 11-119 160 49zm-156-45l-10 110 161-64-151-46z">
      </path>
      <path d="M310 456l-1 3-118-117 173-68-54 182zm48-177l-162 64 111 109 51-173z"></path>
      <path
        d="M195 344L0 313v-5l210-84-15 120zm11-116L1 311l191 30 14-113zM93 634l-3 3 6-156 216-27L93 634zm210-177l-203 26-6 146 209-172z">
      </path>
      <path d="M0 632L93 630 93 632 93 630 95 630 0 784 0 778 90 633 90 633 0 634z"></path>
      <path d="M98 482L97 481 100 482 94 633 0 634 0 632 91 630 91 630 96 488 0 629 0 623 97 481z">
      </path>
      <path d="M101 483L0 466 0 464 95 480 0 322 0 315z"></path>
      <path d="M311 456L95 483l97-141 1-2 118 116zM193 342l-1 1 1-1zm111 113L194 345l-92 135 202-25z">
      </path>
      <path d="M196 341L98 485 0 322 0 315 98 478 191 343 191 343 0 313 0 311z"></path>
      <path d="M101 481L0 629 0 623 96 482 96 482 0 466 0 464z"></path>
      <path d="M887 586l-1 1h-2 2l1-1h2l-75 186-200-215 273 29zm-265-26l190 205 72-177-262-28z"></path>
      <path d="M915 1000L879 856 1039 836 929 1000 925 1000 1032 839 1032 839 884 858 919 1000z">
      </path>
      <path
        d="M815 768h-2l-1-1 1 1h2l1 1-203 54 3-269 199 214zM620 563l-3 256 193-51-190-205zM900 1000L728 894l153-38 2-1 36 145h-4l-35-141-144 36 169 105h-5zm-19-143h-1 1z">
      </path>
      <path
        d="M1039 840l-228-71 73-182 2-4 153 257zM886 587l-2 1 2-1zm1 4l-72 177 217 67-145-244zM882 856h6l-156 40-123-77 273 37zm-261-33l111 70 143-36-254-34z">
      </path>
      <path d="M885 859l-277-37 204-55h2l71 92zm-72-91l-2 1 2-1zm-1 2l-190 51 256 34-66-85z"></path>
      <path d="M1036 836v1l-1-1 1 1v-1l6 2-162 20-71-92 227 70zm-219-65l65 84 147-18-212-66z"></path>
    </g>
  </g>
</svg>