<svg xmlns="http://www.w3.org/2000/svg" width="1500" height="1000" fillRule="evenodd" clipRule="evenodd"
  imageRendering="optimizeQuality" shapeRendering="geometricPrecision" textRendering="geometricPrecision"
  fill="#e8931e">
  <g>
    <path
      d="M75 844c0-3-1-5-4-7s-7-3-11-3-8 1-11 3-4 4-4 7 1 5 4 7 7 3 11 3 8-1 11-3 4-4 4-7zM77 729c0-1-1-3-3-4-1-1-4-1-6-1s-4 0-6 1-3 3-3 4c0 2 1 3 3 4 2 2 4 2 6 2s5 0 6-2c2-1 3-2 3-4zM194 706c0-1-1-3-3-4s-4-1-6-1-5 0-6 1c-2 1-3 3-3 4 0 2 1 3 3 4 1 1 4 2 6 2s4-1 6-2 3-2 3-4zM208 757c0-2-1-3-2-4-2-1-4-2-6-2-3 0-5 1-6 2-2 1-3 2-3 4s1 3 3 4c1 1 3 2 6 2 2 0 4-1 6-2 1-1 2-2 2-4zM126 622c0-2-1-5-4-7s-7-3-11-3-8 1-11 3c-2 2-4 5-4 7 0 3 2 6 4 8 3 1 7 2 11 2s8-1 11-2c3-2 4-5 4-8zM31 647c0-3-2-6-5-8-3-1-6-3-11-3-4 0-8 2-11 3-2 2-4 5-4 8 0 2 2 5 4 7 3 1 7 3 11 3 5 0 8-2 11-3 3-2 5-5 5-7zM199 471c0-3-2-5-5-7-2-2-6-3-11-3-4 0-8 1-10 3-3 2-5 4-5 7s2 6 5 7c2 2 6 3 10 3 5 0 9-1 11-3 3-1 5-4 5-7zM274 512c0-2-2-5-5-7-2-2-6-3-10-3-5 0-8 1-11 3s-5 5-5 7c0 3 2 6 5 8 3 1 6 2 11 2 4 0 8-1 10-2 3-2 5-5 5-8zM233 402c0-2-2-5-4-7-3-2-7-3-11-3-5 0-8 1-11 3s-5 5-5 7c0 3 2 6 5 7 3 2 6 3 11 3 4 0 8-1 11-3 2-1 4-4 4-7zM91 393c2-1 3-3 3-4 0-2-1-3-3-4-1-1-4-2-6-2s-5 1-6 2c-2 1-3 2-3 4 0 1 1 3 3 4 1 1 4 1 6 1s5 0 6-1zM27 480c0-1 0-3-2-4s-4-1-6-1c-3 0-5 0-6 1-2 1-3 3-3 4 0 2 1 3 3 5 1 1 3 1 6 1 2 0 4 0 6-1 2-2 2-3 2-5zM40 306c0-2 0-3-2-4s-4-2-6-2c-3 0-5 1-6 2-2 1-3 2-3 4s1 3 3 4c1 1 3 2 6 2 2 0 4-1 6-2s2-2 2-4zM397 404c0-2-1-5-4-7-3-1-7-3-11-3s-8 2-11 3c-3 2-4 5-4 7 0 3 1 6 4 8 3 1 7 3 11 3s8-2 11-3c3-2 4-5 4-8zM321 262c3-2 4-4 4-7s-1-5-4-7-7-3-11-3-8 1-11 3c-2 2-4 4-4 7s2 5 4 7c3 2 7 3 11 3s8-1 11-3zM368 227c2-1 3-3 3-4 0-2-1-3-3-4-1-1-4-2-6-2s-4 1-6 2-3 2-3 4c0 1 1 3 3 4s4 1 6 1 5 0 6-1zM184 172c2-2 4-4 4-7s-2-5-4-7c-3-2-7-3-11-3s-8 1-11 3-4 4-4 7 1 5 4 7 7 3 11 3 8-1 11-3zM141 205c2-1 3-2 3-4s-1-3-3-4c-1-1-3-2-6-2-2 0-4 1-6 2-1 1-2 2-2 4s1 3 2 4c2 1 4 2 6 2 3 0 5-1 6-2zM74 169c1-1 2-2 2-4s-1-3-2-4c-2-1-4-2-6-2-3 0-5 1-6 2-2 1-3 2-3 4s1 3 3 4c1 1 3 2 6 2 2 0 4-1 6-2zM161 113c3-1 5-4 5-7s-2-5-5-7c-2-2-6-3-10-3-5 0-9 1-11 3-3 2-5 4-5 7s2 6 5 7c2 2 6 3 11 3 4 0 8-1 10-3zM238 63c3-2 5-5 5-8 0-2-2-5-5-7-3-1-6-3-11-3-4 0-8 2-11 3-2 2-4 5-4 7 0 3 2 6 4 8 3 1 7 3 11 3 5 0 8-2 11-3zM96 17c3-2 5-4 5-7s-2-5-5-7-7-3-11-3-8 1-11 3c-2 2-4 4-4 7s2 5 4 7c3 2 7 3 11 3s8-1 11-3zM389 100c3 0 5-1 6-2 2-1 3-3 3-4 0-2-1-3-3-4-1-1-3-2-6-2-2 0-4 1-6 2-1 1-2 2-2 4 0 1 1 3 2 4 2 1 4 2 6 2zM447 139c1-1 2-3 2-4 0-2-1-3-2-4-2-1-4-2-6-2-3 0-5 1-6 2-2 1-3 2-3 4 0 1 1 3 3 4 1 1 3 1 6 1 2 0 4 0 6-1zM495 136c4 0 8-1 10-3 3-1 5-4 5-7 0-2-2-5-5-7-2-2-6-3-10-3-5 0-8 1-11 3s-5 5-5 7c0 3 2 6 5 7 3 2 6 3 11 3zM518 24c4 0 8-1 11-3 2-2 4-4 4-7s-2-5-4-7c-3-2-7-3-11-3s-8 1-11 3-5 4-5 7 2 5 5 7 7 3 11 3zM511 275c2-1 3-2 3-4 0-1-1-3-3-4-1-1-3-2-6-2-2 0-4 1-6 2s-2 3-2 4c0 2 0 3 2 4s4 2 6 2c3 0 5-1 6-2zM785 138c3 1 7 2 11 2s8-1 11-2c3-2 4-5 4-8 0-2-1-5-4-7s-7-3-11-3-8 1-11 3-4 5-4 7c0 3 1 6 4 8zM772 81c2 1 4 1 6 1 3 0 5 0 6-1 2-1 3-3 3-4 0-2-1-3-3-4-1-1-3-2-6-2-2 0-4 1-6 2-1 1-2 2-2 4 0 1 1 3 2 4zM771 29c2 1 6 2 11 2 4 0 8-1 10-2 3-2 5-5 5-8 0-2-2-5-5-7-2-2-6-3-10-3-5 0-9 1-11 3-3 2-5 5-5 7 0 3 2 6 5 8zM610 121c2 0 5 0 6-1 2-1 3-3 3-4 0-2-1-3-3-4-1-1-4-2-6-2s-5 1-6 2c-2 1-3 2-3 4 0 1 1 3 3 4 1 1 4 1 6 1zM633 227c2 0 4 0 6-1 1-1 2-3 2-4 0-2-1-3-2-4-2-1-4-2-6-2-3 0-5 1-6 2-2 1-3 2-3 4 0 1 1 3 3 4 1 1 3 1 6 1zM680 312c-2 1-3 2-3 4 0 1 1 3 3 4 1 1 4 1 6 1s4 0 6-1 3-3 3-4c0-2-1-3-3-4s-4-2-6-2-5 1-6 2zM633 382c0-3-2-5-5-7-2-2-6-3-11-3-4 0-8 1-10 3-3 2-5 4-5 7s2 5 5 7c2 2 6 3 10 3 5 0 9-1 11-3 3-2 5-4 5-7zM612 411c-1-1-3-2-6-2-2 0-4 1-6 2-1 1-2 3-2 4 0 2 1 3 2 4 2 1 4 2 6 2 3 0 5-1 6-2 2-1 3-2 3-4 0-1-1-3-3-4zM549 467c-2-1-4-1-7-1-2 0-4 0-6 1-1 1-2 3-2 4 0 2 1 3 2 4 2 1 4 2 6 2 3 0 5-1 7-2 1-1 2-2 2-4 0-1-1-3-2-4zM468 539c-1-1-4-2-6-2s-4 1-6 2-3 2-3 4c0 1 1 3 3 4s4 2 6 2 5-1 6-2c2-1 3-3 3-4 0-2-1-3-3-4zM882 265c0 2 2 5 4 7 3 2 7 3 11 3s8-1 11-3 4-5 4-7c0-3-1-6-4-7-3-2-7-3-11-3s-8 1-11 3c-2 1-4 4-4 7zM824 360c-2 1-3 3-3 4 0 2 1 3 3 4 1 1 4 2 6 2s5-1 6-2c2-1 3-2 3-4 0-1-1-3-3-4-1-1-4-2-6-2s-5 1-6 2zM879 404c-3 1-5 4-5 7s2 5 5 7c2 2 6 3 10 3 5 0 9-1 11-3 3-2 5-4 5-7s-2-6-5-7c-2-2-6-3-11-3-4 0-8 1-10 3zM1111 214c0 3 2 5 5 7s6 3 11 3c4 0 8-1 10-3 3-2 5-4 5-7s-2-6-5-7c-2-2-6-3-10-3-5 0-8 1-11 3-3 1-5 4-5 7zM999 96c3 2 7 3 11 3s8-1 11-3c2-2 4-4 4-7s-2-5-4-7c-3-2-7-3-11-3s-8 1-11 3-4 4-4 7 1 5 4 7zM1042 39c2 1 4 2 6 2 3 0 5-1 6-2 2-1 3-2 3-4s-1-3-3-4c-1-1-3-2-6-2-2 0-4 1-6 2s-3 2-3 4 1 3 3 4zM912 72c2 1 4 1 6 1 3 0 5 0 6-1 2-1 3-3 3-4 0-2-1-3-3-4-1-1-3-2-6-2-2 0-4 1-6 2-1 1-2 2-2 4 0 1 1 3 2 4zM897 154c0 2 1 3 3 4 1 1 4 2 6 2s4-1 6-2 3-2 3-4c0-1-1-3-3-4s-4-1-6-1-5 0-6 1c-2 1-3 3-3 4zM1483 72c0 2 1 3 2 4 2 1 4 2 6 2 3 0 5-1 7-2 1-1 2-2 2-4s-1-3-2-4c-2-1-4-2-7-2-2 0-4 1-6 2-1 1-2 2-2 4zM1255 58c0 1 1 3 2 4 2 1 4 1 6 1 3 0 5 0 6-1 2-1 3-3 3-4 0-2-1-3-3-4-1-2-3-2-6-2-2 0-4 0-6 2-1 1-2 2-2 4zM1146 111c0 1 1 3 2 4 2 1 4 2 6 2 3 0 5-1 7-2 1-1 2-3 2-4 0-2-1-3-2-4-2-1-4-2-7-2-2 0-4 1-6 2-1 1-2 2-2 4zM1259 132c0 1 1 3 3 4 1 1 4 1 6 1s5 0 6-1c2-1 3-3 3-4 0-2-1-3-3-4-1-1-4-2-6-2s-5 1-6 2c-2 1-3 2-3 4zM1262 197c0 1 1 3 2 4 2 1 4 1 7 1 2 0 4 0 6-1 1-1 2-3 2-4 0-2-1-3-2-4-2-1-4-2-6-2-3 0-5 1-7 2-1 1-2 2-2 4zM1334 107c0 3 2 5 5 7 2 2 6 3 11 3 4 0 8-1 10-3 3-2 5-4 5-7s-2-5-5-7c-2-2-6-3-10-3-5 0-9 1-11 3-3 2-5 4-5 7zM1412 158c0 3 1 5 4 7s7 3 11 3 8-1 11-3c2-2 4-4 4-7s-2-5-4-7c-3-2-7-3-11-3s-8 1-11 3-4 4-4 7zM1294 295c-3 2-5 5-5 7 0 3 2 6 5 8 2 1 6 3 11 3 4 0 8-2 10-3 3-2 5-5 5-8 0-2-2-5-5-7-2-1-6-3-10-3-5 0-9 2-11 3zM1079 299c0 3 2 6 5 8s7 4 12 4 9-2 12-4 5-5 5-8-2-6-5-8-7-3-12-3-9 1-12 3-5 5-5 8zM1089 346c0 3 2 5 4 7 3 2 7 3 11 3s8-1 11-3 5-4 5-7-2-6-5-7c-3-2-7-3-11-3s-8 1-11 3c-2 1-4 4-4 7zM1369 384c0 2 1 3 2 4 2 1 4 2 6 2 3 0 5-1 6-2 2-1 3-2 3-4 0-1-1-3-3-4-1-1-3-1-6-1-2 0-4 0-6 1-1 1-2 3-2 4zM1473 351c-3 2-4 4-4 7s1 5 4 7 7 3 11 3 8-1 11-3 4-4 4-7-1-5-4-7-7-3-11-3-8 1-11 3zM1180 453c-3 2-5 5-5 7 0 3 2 6 5 7 2 2 6 3 10 3 5 0 8-1 11-3 3-1 5-4 5-7 0-2-2-5-5-7s-6-3-11-3c-4 0-8 1-10 3zM1062 468c-2 1-3 3-3 4 0 2 1 3 3 4s4 2 6 2c3 0 5-1 6-2 2-1 3-2 3-4 0-1-1-3-3-4-1-1-3-1-6-1-2 0-4 0-6 1zM1105 594c-2 1-3 3-3 4 0 2 1 3 3 4 1 1 3 2 6 2 2 0 4-1 6-2 1-1 2-2 2-4 0-1-1-3-2-4-2-1-4-1-6-1-3 0-5 0-6 1zM1053 724c-4 0-8 1-11 3s-4 4-4 7 1 6 4 7c3 2 7 3 11 3s8-1 11-3c3-1 4-4 4-7s-1-5-4-7-7-3-11-3zM986 731c-2 0-4 1-6 2-1 1-2 2-2 4s1 3 2 4c2 1 4 2 6 2 3 0 5-1 7-2 1-1 2-2 2-4s-1-3-2-4c-2-1-4-2-7-2zM840 595c-4 0-8 1-11 3s-4 4-4 7 1 5 4 7 7 3 11 3 8-1 11-3c2-2 4-4 4-7s-2-5-4-7c-3-2-7-3-11-3zM575 583c-3-2-7-3-11-3s-8 1-11 3c-2 2-4 4-4 7s2 5 4 7c3 2 7 3 11 3s8-1 11-3 5-4 5-7-2-5-5-7zM407 655c-3-2-7-3-11-3s-8 1-11 3-4 5-4 7c0 3 1 6 4 7 3 2 7 3 11 3s8-1 11-3c3-1 4-4 4-7 0-2-1-5-4-7zM382 785c-2-2-6-3-10-3-5 0-8 1-11 3s-5 5-5 7c0 3 2 6 5 7 3 2 6 3 11 3 4 0 8-1 10-3 3-1 5-4 5-7 0-2-2-5-5-7zM473 686c-1-1-3-1-6-1-2 0-4 0-6 1-1 1-2 3-2 4 0 2 1 3 2 4 2 1 4 2 6 2 3 0 5-1 6-2 2-1 3-2 3-4 0-1-1-3-3-4zM572 742c-2-1-4-1-6-1-3 0-5 0-6 1-2 1-3 3-3 4 0 2 1 3 3 4 1 1 3 2 6 2 2 0 4-1 6-2 1-1 2-2 2-4 0-1-1-3-2-4zM605 738c-2-1-4-1-7-1-2 0-4 0-6 1-1 1-2 3-2 4 0 2 1 3 2 4 2 2 4 2 6 2 3 0 5 0 7-2 1-1 2-2 2-4 0-1-1-3-2-4zM679 823c-2-2-6-3-11-3-4 0-8 1-10 3-3 2-5 4-5 7s2 5 5 7c2 2 6 3 10 3 5 0 9-1 11-3 3-2 5-4 5-7s-2-5-5-7zM597 846c-1-1-3-1-6-1-2 0-4 0-6 1-1 1-2 3-2 4 0 2 1 3 2 4 2 1 4 2 6 2 3 0 5-1 6-2 2-1 3-2 3-4 0-1-1-3-3-4zM861 776c-2 0-5 0-6 1-2 1-3 3-3 4 0 2 1 3 3 4 1 2 4 2 6 2s5 0 6-2c2-1 3-2 3-4 0-1-1-3-3-4-1-1-4-1-6-1zM789 707c-2 0-4 0-6 1-1 1-2 3-2 4 0 2 1 3 2 4 2 1 4 2 6 2 3 0 5-1 7-2 1-1 2-2 2-4 0-1-1-3-2-4-2-1-4-1-7-1zM882 885c-2 0-4 0-6 1s-3 3-3 4c0 2 1 3 3 4 2 2 4 2 6 2 3 0 5 0 6-2 2-1 3-2 3-4 0-1-1-3-3-4-1-1-3-1-6-1zM994 874c-3 0-5 0-6 1-2 1-3 3-3 4 0 2 1 3 3 4 1 2 3 2 6 2 2 0 4 0 6-2 2-1 2-2 2-4 0-1 0-3-2-4s-4-1-6-1zM1187 746c-2 0-4 0-6 1-1 1-2 3-2 4 0 2 1 3 2 4 2 1 4 2 6 2 3 0 5-1 7-2 1-1 2-2 2-4 0-1-1-3-2-4-2-1-4-1-7-1zM1366 670c-2 2-4 5-4 7 0 3 2 6 4 7 3 2 7 3 11 3s8-1 11-3c3-1 5-4 5-7 0-2-2-5-5-7s-7-3-11-3-8 1-11 3zM1269 603c-2 1-3 2-3 4 0 1 1 3 3 4s4 2 6 2 5-1 6-2c2-1 3-3 3-4 0-2-1-3-3-4-1-1-4-2-6-2s-4 1-6 2zM1243 549c-2 1-3 3-3 4 0 2 1 3 3 4 1 1 3 2 6 2 2 0 4-1 6-2 1-1 2-2 2-4 0-1-1-3-2-4-2-1-4-1-6-1-3 0-5 0-6 1zM1313 529c-2 1-3 3-3 4 0 2 1 3 3 4 1 1 3 2 6 2 2 0 4-1 6-2 1-1 2-2 2-4 0-1-1-3-2-4-2-1-4-1-6-1-3 0-5 0-6 1zM1455 693c-2 1-3 3-3 4 0 2 1 3 3 4 1 1 3 2 6 2 2 0 4-1 6-2s3-2 3-4c0-1-1-3-3-4s-4-1-6-1c-3 0-5 0-6 1zM1424 836c-2 0-4 0-6 1-1 1-2 3-2 4 0 2 1 3 2 4 2 2 4 2 6 2 3 0 5 0 7-2 1-1 2-2 2-4 0-1-1-3-2-4-2-1-4-1-7-1zM1363 797c-2 0-4 1-6 2-1 1-2 2-2 4 0 1 1 3 2 4 2 1 4 2 6 2 3 0 5-1 6-2 2-1 3-3 3-4 0-2-1-3-3-4-1-1-3-2-6-2zM1203 838c-2 2-4 5-4 8 0 2 2 5 4 7 3 1 7 3 11 3 5 0 8-2 11-3 3-2 5-5 5-7 0-3-2-6-5-8-3-1-6-2-11-2-4 0-8 1-11 2zM1398 987c-2 0-5 0-6 1-2 1-3 3-3 4 0 2 1 3 3 4 1 1 4 2 6 2s5-1 6-2c2-1 3-2 3-4 0-1-1-3-3-4-1-1-4-1-6-1zM1273 942c-4 0-8 1-11 3-3 1-4 4-4 7 0 2 1 5 4 7s7 3 11 3 8-1 11-3 4-5 4-7c0-3-1-6-4-7-3-2-7-3-11-3zM975 983c-3-2-7-3-11-3s-8 1-11 3-5 4-5 7 2 6 5 7c3 2 7 3 11 3s8-1 11-3c2-1 4-4 4-7s-2-5-4-7z">
    </path>
  </g>
</svg>