<svg xmlns="http://www.w3.org/2000/svg" width="1500" height="1000" fillRule="evenodd" clipRule="evenodd"
  imageRendering="optimizeQuality" shapeRendering="geometricPrecision" textRendering="geometricPrecision"
  fill="#e8931e">
  <g>
    <g>
      <path d="M1500 237L1295 138 1500 2 1500 6 1301 137 1301 137 1500 234z"></path>
      <path d="M1500 6L1298 140 1171 0 1175 0 1299 135 1500 2z"></path>
      <path d="M1175 0L1301 138 1095 242 1163 0 1167 0 1100 236 1100 236 1296 137 1171 0z"></path>
      <path d="M1297 135L1500 234 1500 237 1300 140 1300 140 1257 314 1500 246 1500 249 1252 318z">
      </path>
      <path d="M1301 135l-44 183-160-78-3-1 207-104zm-203 104l1 1-1-1zm3 0l154 75 41-174-195 99z">
      </path>
      <path d="M1167 0L1099 242 881 0 886 0 1097 235 1163 0z"></path>
      <path d="M1097 237l160 78 3 2-384 102 221-182zm1 3L888 413l364-97-154-76z">
      </path>
      <path d="M1500 391L1251 316 1500 246 1500 249 1261 316 1261 316 1500 388z">
      </path>
      <path d="M886 0L1099 238 1102 241 796 160 873 0 877 0 800 159 1093 236 881 0z">
      </path>
      <path d="M1103 236L883 417l-1-1 1 1-1 1-188-88 409-94zm-401 95l179 83 211-173-390 90z"></path>
      <path d="M796 159l1-1 306 81-408 93 101-173zm-95 169l391-89-293-78-98 167z">
      </path>
      <path d="M877 0L799 162 563 0 568 0 797 157 873 0z"></path>
      <path d="M568 0L799 159 803 161 527 157 553 0 557 0 532 154 793 158 563 0z">
      </path>
      <path d="M802 156L700 331l-2-1 2 1-1 1-168-42 271-134zM539 289l158 40 97-166-255 126z"></path>
      <path d="M803 159L533 292l-5-137v-1l275 5zm-274-2l1-2-1 2zm3 0l5 130 255-126-260-4z"></path>
      <path d="M557 0L531 160 427 0 431 0 528 150 553 0z"></path>
      <path
        d="M531 154l6 135v3L239 189l292-35zm-3 3l-277 33 282 97-5-130zM697 328l186 87 2 1-298 171 110-259zm2 4L594 580l285-164-180-84z">
      </path>
      <path d="M700 329L592 584l-3-1-56-293v-2l167 41zm-165-38v-2 2zm3 0l53 286 105-246-158-40z">
      </path>
      <path d="M538 289L425 417 243 190h2-2l-3-3 298 102zm-288-96l175 219 108-122-283-97z"></path>
      <path
        d="M536 286l56 297-3 1-166-169 113-129zm-2 7L427 415l161 163-54-285zM530 154l6 2-292 35-75-147 361 110zM175 49l71 139 277-33L175 49z">
      </path>
      <path d="M244 186l183 228 1 2-270-15 86-215zm2 7l-83 205 259 15-176-220z"></path>
      <path d="M247 188L161 403 0 197 0 192 160 396 243 191 0 187 0 184z"></path>
      <path d="M431 0l102 158L171 48l-5-2L389 0h12L177 47l349 106L427 0h4zM172 47v1-1z"></path>
      <path d="M172 44L248 191 0 187 0 184 242 188 171 49 171 49 0 182 0 178z"></path>
      <path d="M401 0L171 48 143 0 147 0 173 45 389 0z"></path>
      <path d="M147 0L175 49 9 0 19 0 168 44 143 0z"></path>
      <path d="M19 0L175 46 0 182 0 178 169 47 9 0z"></path>
      <path d="M0 192L164 401 0 375 0 373 157 398 0 197z"></path>
      <path d="M0 373L163 399 0 566 0 562 157 400 0 375z"></path>
      <path d="M425 413l167 170 3 3-284-73 114-100zm0 4l-107 95 268 69-161-164z">
      </path>
      <path d="M428 414L315 515 159 400h1-1l-3-2 272 16zm-263-13l149 110 107-95-256-15z"></path>
      <path d="M314 511l277 71v3l-413 28 136-102zm1 3l-127 96 394-27-267-69z"></path>
      <path d="M317 513L182 614l-24-214h2-2v-4l159 117zM163 403l22 205 127-95-149-110z"></path>
      <path d="M162 396L185 613 0 574 0 571 181 610 159 403 159 403 0 566 0 562z">
      </path>
      <path d="M590 582v1-1h4L417 769 179 610l411-28zm-403 30l229 153 171-180-400 27z">
      </path>
      <path d="M880 415l2 1-2-1 4-2-44 184-254-13 294-169zM595 582l242 12 42-175-284 163z"></path>
      <path d="M1500 543L1226 600 1500 403 1500 406 1238 594 1238 594 1500 540z">
      </path>
      <path d="M1237 596l-205 119-195-119 1-1-1 1-3-2 403 2zm-394 1l189 114 195-112-384-2z"></path>
      <path d="M1500 560L1398 683 1228 597 1500 541 1500 543 1236 598 1236 598 1397 679 1500 555z">
      </path>
      <path d="M1235 594l-59 225-145-105-2-1 206-119zm-203 119l1 1-1-1zm3 0l139 101 55-213-194 112z">
      </path>
      <path d="M1230 595l169 85 1 1-228 139 58-225zm3 5l-55 213 216-132-161-81z">
      </path>
      <path d="M1500 682L1394 683 1500 555 1500 560 1401 680 1401 680 1500 679z">
      </path>
      <path d="M1500 814L1394 680 1500 679 1500 682 1401 682 1401 682 1500 808z">
      </path>
      <path d="M1400 678l-34 134-191 6v-1l1 1-1-1v1h-5l230-140zm-220 137l182-5 33-125-215 130z"></path>
      <path d="M1396 677L1500 808 1500 814 1398 685 1398 685 1366 810 1500 827 1500 830 1362 812z">
      </path>
      <path d="M838 593l195 119 5 3-247-20 47-102zm1 5l-43 95 230 18-187-113z"></path>
      <path d="M841 594l-47 102-205-112 1-1-1 1-4-2 256 12zm-245-9l196 107 44-95-240-12z"></path>
      <path d="M592 579l1 147-176 42-1-1 2 1-2-1 1 1-5 2 180-191zm-3 9L421 765l168-41V588z"></path>
      <path
        d="M794 693l3 2-207 32-1-146 205 112zM592 586l1 138 196-31-197-107zM182 609l236 157-2 2-273-57 39-102zm2 5l-37 96 262 54-225-150z">
      </path>
      <path d="M185 610L146 713 0 580 0 576 144 708 181 612 0 574 0 571z"></path>
      <path d="M0 576L149 711 0 724 0 721 142 709 0 580z"></path>
      <path d="M143 709l274 57 6 1-287 51 7-109zm4 3l-7 102 269-47-262-55z"></path>
      <path d="M147 709L140 819 0 730 0 726 137 813 143 712 0 724 0 721z"></path>
      <path d="M0 726L142 817 0 836 0 834 134 815 0 730z"></path>
      <path d="M0 834L142 814 3 1000 0 1000 0 999 135 818 0 836z"></path>
      <path d="M140 811L161 1000 157 1000 137 821 137 821 3 1000 0 1000 0 999z"></path>
      <path d="M416 766v1-1l4-1-75 109-213-58 284-50zm-272 50l199 54 70-101-269 47z">
      </path>
      <path d="M347 872L178 1000 173 1000 341 873 141 818 141 818 161 1000 157 1000 136 814z"></path>
      <path d="M591 724v1l-1 1 1-1v-1h1l97 81-280-38 182-43zm-168 43l257 34-89-74-168 40z"></path>
      <path d="M343 871L344 872 343 871 346 869 344 1000 340 1000 342 875 178 1000 173 1000z"></path>
      <path d="M793 693v1-1l4-1-112 113-97-81 205-31zm-198 33l90 75 104-105-194 30z">
      </path>
      <path d="M1032 712l1 2-177 46-67-68 243 20zm-235-16l61 61 166-43-227-18z"></path>
      <path d="M793 692l67 67-175 45v-1h1-1v1l-5 1 113-113zm0 4L690 800l164-42-61-62z">
      </path>
      <path d="M1033 712l143 104 5 3-330-60 182-47zm-2 3l-168 44 306 55-138-99z">
      </path>
      <path d="M1500 914L1363 812 1364 811 1363 812 1359 809 1500 827 1500 830 1369 813 1369 813 1500 910z"></path>
      <path d="M1478 1000L1338 952 1500 925 1500 927 1349 953 1349 953 1487 1000z">
      </path>
      <path d="M1364 810v1-1h5l-138 97-59-91 192-6zm-186 8l54 84 127-90-181 6z"></path>
      <path d="M1341 952L1342 950 1487 1000 1478 1000 1344 954 1330 1000 1326 1000z">
      </path>
      <path d="M1433 862L1434 860 1500 910 1500 914 1435 865 1348 950 1348 950 1500 925 1500 927 1339 954z"></path>
      <path d="M1367 807l-22 147-114-48-2-1 138-98zm-135 97l1 1-1-1zm3 0l107 46 20-135-127 89z"></path>
      <path d="M1346 950L1330 1000 1326 1000 1340 955 1217 1000 1209 1000z"></path>
      <path d="M1363 808l73 54h1l-92 91-4-1 22-144zm3 6l-20 133 86-84-66-49z"></path>
      <path d="M1230 904L1231 902 1347 952 1217 1000 1209 1000 1339 952 1233 906 1190 1000 1186 1000z">
      </path>
      <path d="M1173 816l2-1 59 90-287 44-2-2 228-131zM953 945l276-41-55-85-221 126z">
      </path>
      <path d="M1179 816L949 949l-94-190h2-2l-1-2 325 59zm-319-55l91 184 220-128-311-56z"></path>
      <path d="M1235 903L1190 1000 1186 1000 1229 906 956 947 956 947 1146 1000 1137 1000 944 947z">
      </path>
      <path d="M858 757l96 194-271-147-2-2 177-45zm-173 46v1-1zm171-43l-168 43 258 140-90-183z"></path>
      <path d="M342 872L344 872 342 873 344 872 342 872 342 867 461 1000 456 1000 346 877 344 1000 340 1000z"></path>
      <path d="M415 767h1l-1 1 1-1h-1l1-3 103 116-178-7 74-106zm-68 104l165 7-95-108-70 101z"></path>
      <path d="M685 801l5 1-175 79-102-116 272 36zm-265-32l96 108 164-74-260-34z">
      </path>
      <path d="M518 878L475 1000 471 1000 513 880 345 871 345 871 461 1000 456 1000 338 868z"></path>
      <path d="M951 946l5 2-234-4-40-144 269 146zM687 806l38 135 220 5-258-140z">
      </path>
      <path d="M948 1000L946 946 948 946 946 946 946 945 1147 1000 1137 1000 950 948 950 948 952 1000z">
      </path>
      <path d="M724 943L723 944 724 941 950 945 952 1000 948 1000 946 948 946 948 733 944 918 1000 908 1000 723 944z">
      </path>
      <path d="M726 941L704 1000 700 1000 721 945 516 1000 505 1000z"></path>
      <path d="M686 801l40 144-212-65-3-1 175-78zm-171 78l1 1-1-1zm168-74l-164 74 202 61-38-135z">
      </path>
      <path d="M514 877L728 943 516 1000 505 1000 719 943 517 881 517 881 475 1000 471 1000z"></path>
      <path d="M722 941L918 1000 908 1000 725 944 725 944 704 1000 700 1000z"></path>
      <path d="M880 416h2l-1 1 1-1h-2v-2l278 51-322 133 44-182zm-39 177l307-128-265-47-42 175z"></path>
      <path d="M1500 397L1284 421 1254 314 1500 388 1500 391 1259 318 1259 318 1287 418 1500 394z">
      </path>
      <path
        d="M1152 464l1 1h-2 2l-1-1 2-1 81 136-403-2 320-133zM845 594l384 2-77-129-307 127zM1500 407l-159 114-58-101v-2l217-24v3l-212 23 54 97 158-114v4zm-215 12v1-1z">
      </path>
      <path
        d="M1260 314l-106 153-273-50-5-1 384-102zM882 416v1-1zm6 0l264 47 100-144-364 97zM1283 419l2-4 58 104-114 82 54-182zm-48 174l104-74-53-95-51 169z">
      </path>
      <path d="M1288 417l-56 185-81-137-1-1 138-47zm-135 48l1 1-1-1zm2 1l76 127 51-171-127 44z"></path>
      <path d="M1254 316h2-2 2-2l3-4 30 108-138 48 105-152zm-97 146l126-43-28-99-98 142z"></path>
    </g>
  </g>
</svg>