<svg xmlns="http://www.w3.org/2000/svg" width="1500" height="1000" fillRule="evenodd" clipRule="evenodd"
  imageRendering="optimizeQuality" shapeRendering="geometricPrecision" textRendering="geometricPrecision"
  fill="#e8931e">
  <g>
    <g>
      <path d="M365 0L211 141 2 0 7 0 211 137 211 137 360 0z"></path>
      <path d="M7 0L214 139 0 227 0 224 208 139 2 0z"></path>
      <path d="M0 224l211-86 156 137L0 229v-5zm358 48L210 141 1 226l357 46z"></path>
      <path d="M207 140L360 0 365 0 214 138 214 138 475 167 370 0 374 0 481 170z"></path>
      <path d="M206 137l276 30-118 107-2 2-156-139zm156 136h2-2zm0-2l113-103-260-27 147 130z"></path>
      <path d="M0 226L367 273 0 420 0 417 357 274 0 229z"></path>
      <path d="M359 274l118-107 2-2 153 257-273-148zm6-1l258 141-145-244-113 103z"></path>
      <path d="M592 0L478 171 370 0 374 0 478 164 478 164 588 0z"></path>
      <path d="M0 417l361-145 5-2-121 205L0 423v-6zm0 3l243 52 115-196L0 420z"></path>
      <path d="M358 270l271 147-1 1 1-1 1 1-131 125-141-273zm142 268l125-120-259-141 134 261z"></path>
      <path d="M243 475l-1-1 120-204 140 273-259-68zm253 63L362 277 247 473l249 65z"></path>
      <path d="M0 420L248 473 0 634 0 631 240 474 0 423z"></path>
      <path d="M0 631L243 473 246 471 239 654 0 637 0 634 236 652 242 477 0 634z"></path>
      <path d="M239 471l261 68-1 2 1-2 2 1-63 112-200-181zm199 176l59-106-247-64 188 170z"></path>
      <path d="M242 470l200 180-205 4h-2l7-184zm-3 183h-2 2zm0-1l196-4-189-171-7 175z"></path>
      <path d="M0 634L245 652 0 723 0 720 230 654 0 637z"></path>
      <path
        d="M235 652l203-4h3L288 847l-53-195zm5 2l50 185 145-188-195 3zM496 541l130-124 1-1 256 199-387-74zm6-1l370 70-244-190-126 120z">
      </path>
      <path d="M498 539l380 72v3l-440 37h-3l63-112zm-58 111l-2-1 2 1zm1-2l427-36-368-70-59 106z">
      </path>
      <path d="M437 647l193 76-340 121-1-1 1 1-6 2 153-199zM293 840l329-117-183-72-146 189z"></path>
      <path
        d="M432 648l446-37 1 2-253 112-194-77zm12 2l182 72 244-108-426 36zM236 653l2-4 53 195-220 50 165-241zM78 890l209-48-50-185L78 890z">
      </path>
      <path d="M284 844l341-122 3-1-23 180-321-57zm10-1l307 55 22-173-329 118z"></path>
      <path d="M287 842L608 899 320 1000 312 1000 598 900 291 845 285 1000 281 1000z"></path>
      <path d="M0 720l241-69L76 893l-2 3L0 736v-8l75 161 159-233L0 723v-3zm75 172h2-2z"></path>
      <path d="M71 892L291 841 285 1000 281 1000 287 845 78 893 78 893 265 1000 259 1000z"></path>
      <path d="M0 728L77 893 0 913 0 910 72 891 0 736z"></path>
      <path d="M0 910L78 890 6 1000 1 1000 71 894 0 913z"></path>
      <path d="M1 1000L74 890 265 1000 259 1000 75 894 6 1000z"></path>
      <path d="M312 1000L606 897 569 1000 565 1000 600 902 320 1000z"></path>
      <path d="M565 1000L602 898 836 1000 829 1000 604 902 569 1000z"></path>
      <path d="M622 723l255-112 5-2-109 190-151-76zm7 0l142 72 103-179-245 107z"></path>
      <path d="M624 721l151 76-171 104-1-1 1 1-3 2 23-182zm-19 176l164-100-142-72-22 172z"></path>
      <path d="M770 797l106-185h4l42 276-152-91zm4-1l143 85-40-263-103 178z"></path>
      <path d="M772 795l152 91-321 15v-1 1h-6l175-106zM608 898l307-14-143-85-164 99z"></path>
      <path d="M597 899L922 883 867 1000 863 1000 917 886 609 901 609 901 836 1000 829 1000z"></path>
      <path d="M876 613l2-1-2 1v-3l280 119-238 158-42-274zm45 269l229-153-270-114 41 267z"></path>
      <path d="M626 419l2-1-2 1-3-3 275 30-19 170-253-197zm250 190l18-161-262-28 244 189z"></path>
      <path d="M815 0L902 188 600 0 606 0 894 180 894 180 811 0z"></path>
      <path d="M897 180l178 137-178 130h-1 1l-3 3 3-270zm1 263l171-126-168-130-3 256z"></path>
      <path d="M831 0L1027 73 898 186 812 0 816 0 900 181 900 181 1022 73 823 0z"></path>
      <path d="M894 182l337 39-158 97-1 1-178-137zm178 135l1-1-1 1zm0-2l151-92-319-37 168 129z"></path>
      <path d="M895 185l128-113 1-1 208 153-337-39zm7-2l320 37-197-145-123 108z"></path>
      <path d="M1025 0L1026 75 823 0 831 0 1022 71 1022 71 1022 0z"></path>
      <path d="M1236 0L1023 75 1022 0 1025 0 1026 71 1026 71 1228 0z"></path>
      <path d="M1019 71l201 23 9 128h-2l1-1-1 1h2v3L1019 71zm206 147l-8-122-187-21 195 143z"></path>
      <path d="M1019 74L1228 0 1236 0 1030 72 1030 72 1217 94 1244 0 1248 0 1220 97z"></path>
      <path d="M893 447l178-131 4-3-30 166-152-32zm6-1l143 29 27-154-170 125z"></path>
      <path d="M894 445l153 31-168 137-1-1 1 1-3 3 18-171zm-14 163l160-130-142-30-18 160z"></path>
      <path d="M871 611l220-1 64 118-2 1 1-1-1 1 2-1 2 4-286-121zm13 3l265 112-60-113-205 1z"></path>
      <path
        d="M1042 476l2-2 48 139-218 1 168-138zM882 611l206-1-46-130-160 131zM916 885l236-157 3 1-86 183-153-27zm7-1l144 24 82-175-226 151z">
      </path>
      <path d="M918 883L1073 909 887 1000 881 1000 1064 911 921 886 867 1000 863 1000z"></path>
      <path d="M881 1000L1070 908 1087 1000 1083 1000 1067 912 887 1000z"></path>
      <path d="M1066 911l85-183 2-4 76 192-163-5zm5-2l153 4-71-180-82 176z"></path>
      <path d="M1066 909L1230 913 1107 1000 1101 1000 1222 916 1070 911 1087 1000 1083 1000z"></path>
      <path d="M1101 1000L1227 912 1254 1000 1250 1000 1225 917 1107 1000z"></path>
      <path d="M1250 1000L1223 912 1487 1000 1479 1000 1229 917 1254 1000z"></path>
      <path d="M1219 914L1500 899 1500 902 1233 915 1233 915 1487 1000 1479 1000z"></path>
      <path d="M1151 729h2-2l-1-3 162 50-86 142-75-189zm76 181l80-132-151-47 71 179z"></path>
      <path d="M1309 775L1500 887 1500 891 1311 779 1229 913 1229 913 1500 899 1500 902 1223 916z">
      </path>
      <path d="M1088 612h2l1 1-1-1h-2v-1l121-65-56 188-65-122zm64 112l51-171-111 59 60 112z"></path>
      <path d="M1309 778L1310 777 1309 778 1305 776 1500 777 1500 780 1315 778 1500 887 1500 891z">
      </path>
      <path d="M1042 477h1-1l-2-3 169 75-120 65-47-137zm49 132l112-59-157-70 45 129z"></path>
      <path d="M1070 317h4l69 118-102 44 29-162zm-24 157l92-40-65-112-27 152z"></path>
      <path d="M1040 477l101-45 67 117h-2l1-1-1 1h2l2 4-170-76zm7 0l155 69-62-110-93 41z"></path>
      <path d="M1070 317l156-96 5-3-90 220-71-121zm4 1l66 112 84-204-150 92z"></path>
      <path d="M1380 0L1220 96 1219 95 1220 96 1216 99 1244 0 1248 0 1221 92 1221 92 1374 0z"></path>
      <path d="M1500 21L1429 113 1387 0 1391 0 1430 106 1430 106 1500 15z"></path>
      <path d="M1217 95h2-2l-1-3 146 92-137 40-8-129zm12 125l126-37-134-85 8 122z"></path>
      <path d="M1429 111L1427 110 1500 15 1500 21 1433 108 1500 118 1500 121z"></path>
      <path d="M1295 49L1293 48 1374 0 1380 0 1299 48 1427 106 1427 106 1387 0 1391 0 1433 112z">
      </path>
      <path d="M1213 94l220 14-73 76-1 2-146-92zm145 90l2-1-2 1zm0-2l68-72-202-13 134 85z"></path>
      <path d="M1426 108L1500 118 1500 121 1433 111 1500 192 1500 197z"></path>
      <path d="M1214 96l80-49h1l136 61-1 3-216-15zm9-2l200 14-127-58-73 44z"></path>
      <path d="M1358 185L1355 184 1430 107 1500 192 1500 197 1430 112 1361 183 1500 212 1500 214z">
      </path>
      <path d="M1226 223l-2-2 136-39 65 192-3 1-196-152zm194 147l-63-184-127 36 190 148z"></path>
      <path d="M1226 219l199 154-284 63-1-2 1 2h-3l88-217zm-83 213l276-61-191-146-85 207z"></path>
      <path d="M1356 182L1500 212 1500 214 1361 186 1423 368 1423 368 1500 243 1500 250 1422 376z">
      </path>
      <path d="M1138 434l290-65-220 181-2 2-68-118zm68 115h2-2zm-63-114l64 112 210-172-274 60z"></path>
      <path d="M1310 778L1310 777 1311 778 1310 777 1310 778 1303 778 1500 700 1500 703 1317 776 1500 777 1500 780z">
      </path>
      <path d="M1152 730l1-1 1 1-1-1-1 1-3-1 173-69-10 119-160-49zm156 45l10-110-161 64 151 46z">
      </path>
      <path d="M1204 549l1-3 118 117-173 68 54-182zm-48 177l162-64-111-109-51 173z"></path>
      <path d="M1319 661L1500 690 1500 692 1322 664 1308 777 1308 777 1500 700 1500 703 1304 781z">
      </path>
      <path d="M1421 371l3-3-7 156-216 27 220-180zm-210 177l203-26 6-146-209 172z"></path>
      <path d="M1500 373L1421 375 1421 373 1421 375 1418 375 1500 243 1500 250 1424 372 1424 372 1500 371z"></path>
      <path
        d="M1415 523L1417 524 1414 523 1419 372 1500 371 1500 373 1423 375 1423 375 1418 517 1500 396 1500 402 1417 524z">
      </path>
      <path d="M1412 522L1500 536 1500 539 1419 525 1500 660 1500 667z"></path>
      <path d="M1203 549l216-27-97 141-1 2-118-116zm117 114l2-1-2 1zm-111-113l111 110 92-135-203 25z">
      </path>
      <path d="M1318 663L1416 520 1500 660 1500 667 1415 527 1323 662 1323 662 1500 690 1500 692z">
      </path>
      <path d="M1413 524L1500 396 1500 402 1418 522 1418 522 1500 536 1500 539z"></path>
      <path d="M627 419l1-1h1-1l-1 1h-2l75-186 200 215-273-29zm265 26L702 240l-72 177 262 28z"></path>
      <path d="M598 0L635 149 475 169 588 0 592 0 481 166 481 166 630 147 594 0z"></path>
      <path
        d="M699 237h2l1 1-1-1h-2l-1-1 203-54-3 269-199-214zm195 205l3-256-193 51 190 205zM606 0l179 111-152 38-2 1L594 0h4l36 146 144-36L601 0h5zm26 148h2-2z">
      </path>
      <path
        d="M475 165l228 71-74 182-1 4-153-257zm153 253l1-1-1 1zm-1-4l72-177-217-67 145 244zM632 149h-7l157-40 123 77-273-37zm261 33l-112-70-142 36 254 34z">
      </path>
      <path d="M629 146l276 37-203 55h-2l-71-92zm72 91l2-1-2 1zm1-2l190-51-256-34 66 85z"></path>
      <path d="M477 169l1-1 1 1-1-1-1 1-5-2 161-20 72 92-228-70zm220 65l-66-84-147 18 213 66z"></path>
    </g>
  </g>
</svg>