<?xml version="1.0" encoding="UTF-8" standalone="no"?>

<svg xml:space="preserve" width="19.999479" height="14.325999" version="1.1"
  style="clip-rule:evenodd;fill-rule:evenodd;image-rendering:optimizeQuality;shape-rendering:geometricPrecision;text-rendering:geometricPrecision"
  viewBox="0 0 19.999479 14.325999" id="svg15" sodipodi:docname="favicon.svg"
  inkscape:version="1.1.2 (b8e25be833, 2022-02-05)" xmlns:inkscape="http://www.inkscape.org/namespaces/inkscape"
  xmlns:sodipodi="http://sodipodi.sourceforge.net/DTD/sodipodi-0.dtd" xmlns="http://www.w3.org/2000/svg"
  xmlns:svg="http://www.w3.org/2000/svg">
  <sodipodi:namedview id="namedview17" pagecolor="#ffffff" bordercolor="#666666" borderopacity="1.0"
    inkscape:pageshadow="2" inkscape:pageopacity="0.0" inkscape:pagecheckerboard="0" showgrid="false" fit-margin-top="0"
    fit-margin-left="0" fit-margin-right="0" fit-margin-bottom="0" inkscape:zoom="29.911111" inkscape:cx="9.0768945"
    inkscape:cy="10.013002" inkscape:window-width="1920" inkscape:window-height="991" inkscape:window-x="-9"
    inkscape:window-y="-9" inkscape:window-maximized="1" inkscape:current-layer="_2245729665040" />
  <defs id="defs4">

  </defs>
  <g id="Warstwa_x0020_1" inkscape:label="Warstwa 1" inkscape:groupmode="layer"
    transform="translate(-630.99999,-227.43077)">
    <metadata id="CorelCorpID_0Corel-Layer" />
    <g id="_2245729665040" transform="matrix(0.07142671,0,0,0.07142671,585.92974,211.18614)">
      <path fill="#39B5A4"
        d="m 683,337 -11,-9 89,-72 c 6,-5 7,-15 2,-22 -6,-7 -16,-8 -23,-3 l -103,85 c -4,3 -6,7 -6,12 0,5 2,10 6,13 l 26,21 c 3,2 7,4 10,4 5,0 10,-2 13,-6 5,-7 4,-17 -3,-23 z"
        id="path7" style="fill:#33b198;fill-opacity:1" />
      <path fill="#39B5A4"
        d="m 905,316 -29,-25 c -7,-5 -17,-4 -23,3 -6,7 -5,17 2,22 l 15,12 -88,72 c -7,5 -8,16 -3,22 3,4 8,6 13,6 3,0 7,-1 10,-3 l 103,-84 c 4,-3 6,-8 6,-13 0,-5 -2,-9 -6,-12 z"
        id="path9" style="fill:#33b198;fill-opacity:1" />
      <path fill="#39B5A4"
        d="m 814,229 c -8,-4 -18,0 -21,8 l -69,161 c -4,9 0,18 8,22 2,1 5,1 7,1 6,0 12,-4 14,-10 l 70,-161 c 3,-8 -1,-18 -9,-21 z"
        id="path11" style="fill:#33b198;fill-opacity:1" />
    </g>
  </g>
</svg>